<svg width="25" height="25" viewBox="0 0 25 25" version="1.1" xmlns="http://www.w3.org/2000/svg" xmlns:xlink="http://www.w3.org/1999/xlink">
<title>noun_376938_cc</title>
<desc>Created using Figma</desc>
<g id="Canvas" transform="translate(-4909 -2758)">
<g id="noun_376938_cc">
<g id="Group">
<g id="Group">
<g id="Group">
<g id="Vector">
<use xlink:href="#path0_fill" transform="translate(4909 2758)" fill="#219653"/>
</g>
</g>
</g>
</g>
</g>
</g>
<defs>
<path id="path0_fill" d="M 12.5 8.88178e-16C 9.18479 1.77636e-15 6.00537 1.31696 3.66117 3.66117C 1.31696 6.00537 2.66454e-15 9.18479 0 12.5C 3.55271e-15 15.8152 1.31696 18.9946 3.66117 21.3388C 6.00537 23.683 9.18479 25 12.5 25C 15.8152 25 18.9946 23.683 21.3388 21.3388C 23.683 18.9946 25 15.8152 25 12.5C 25 9.18479 23.683 6.00537 21.3388 3.66117C 18.9946 1.31696 15.8152 1.44329e-15 12.5 0L 12.5 8.88178e-16ZM 12.5 6C 15.2555 6 17.5 8.2445 17.5 11C 17.5 14.8348 13.8533 18.3537 12.8535 19.3535L 12.5 19.707L 12.1465 19.3535C 11.1454 18.3524 7.5 14.8248 7.5 11C 7.5 8.2445 9.7445 6 12.5 6ZM 12.5 7C 10.2849 7 8.5 8.7849 8.5 11C 8.5 13.9376 11.292 16.99 12.5 18.2285C 13.709 16.9904 16.5 13.9488 16.5 11C 16.5 8.7849 14.7151 7 12.5 7ZM 12.5 9C 13.5986 9 14.5 9.9013 14.5 11C 14.5 12.0986 13.5986 13 12.5 13C 11.4014 13 10.5 12.0986 10.5 11C 10.5 9.9013 11.4014 9 12.5 9ZM 12.5 10C 11.9418 10 11.5 10.4418 11.5 11C 11.5 11.5582 11.9418 12 12.5 12C 13.0582 12 13.5 11.5582 13.5 11C 13.5 10.4418 13.0582 10 12.5 10Z"/>
</defs>
</svg>
