<svg width="25" height="25" viewBox="0 0 25 25" version="1.1" xmlns="http://www.w3.org/2000/svg" xmlns:xlink="http://www.w3.org/1999/xlink">
<title>noun_99709_cc</title>
<desc>Created using Figma</desc>
<g id="Canvas" transform="translate(-4909 -2597)">
<g id="noun_99709_cc">
<g id="Vector">
<use xlink:href="#path0_fill" transform="translate(4909 2597)" fill="#219653"/>
</g>
</g>
</g>
<defs>
<path id="path0_fill" d="M 12.5 -3.15905e-08C 19.4034 -3.15905e-08 25 5.59656 25 12.5C 25 19.4034 19.4034 25 12.5 25C 5.59625 25 -3.15905e-08 19.4034 -3.15905e-08 12.5C -3.15905e-08 5.59656 5.59625 -3.15905e-08 12.5 -3.15905e-08ZM 20.0212 16.6184L 20.0172 8.57719L 15.2266 11.8744L 20.0212 16.6184ZM 14.4381 12.3172L 12.7331 13.4597C 12.6606 13.5069 12.5766 13.5313 12.4944 13.5313C 12.4113 13.5313 12.3288 13.5072 12.2563 13.46L 10.5109 12.2834L 5.57156 17.1703L 19.4366 17.1703L 14.4381 12.3172ZM 9.76844 11.7825L 4.98969 8.56063L 4.98969 16.5888L 9.76844 11.7825ZM 12.4941 12.5734L 19.4353 7.91062L 5.58312 7.91062L 12.4941 12.5734Z"/>
</defs>
</svg>
