<svg width="8" height="12" viewBox="0 0 8 12" version="1.1" xmlns="http://www.w3.org/2000/svg" xmlns:xlink="http://www.w3.org/1999/xlink">
<title>noun_715033_cc</title>
<desc>Created using Figma</desc>
<g id="Canvas" transform="translate(-5238 -2656)">
<g id="noun_715033_cc">
<g id="Group">
<g id="Vector">
<use xlink:href="#path0_stroke" transform="translate(5239 2657)" fill="#575757"/>
</g>
</g>
</g>
</g>
<defs>
<path id="path0_stroke" d="M -0.160046 9.80794C -0.266115 9.89633 -0.280446 10.054 -0.192055 10.16C -0.103664 10.2661 0.0539768 10.2804 0.160046 10.1921L -0.160046 9.80794ZM 6 5L 6.16005 5.19205C 6.21704 5.14456 6.25 5.07419 6.25 5C 6.25 4.9258 6.21704 4.85544 6.16005 4.80794L 6 5ZM 0.160046 -0.192055C 0.0539768 -0.280446 -0.103664 -0.266115 -0.192055 -0.160046C -0.280446 -0.0539765 -0.266115 0.103665 -0.160046 0.192056L 0.160046 -0.192055ZM 0.160046 10.1921L 6.16005 5.19205L 5.83995 4.80794L -0.160046 9.80794L 0.160046 10.1921ZM 6.16005 4.80794L 0.160046 -0.192055L -0.160046 0.192056L 5.83995 5.19205L 6.16005 4.80794Z"/>
</defs>
</svg>
