<?xml version="1.0" encoding="utf-8"?>
<!-- Generator: Adobe Illustrator 26.0.1, SVG Export Plug-In . SVG Version: 6.00 Build 0)  -->
<svg height="150" version="1.1" id="Layer_1" xmlns="http://www.w3.org/2000/svg" xmlns:xlink="http://www.w3.org/1999/xlink" x="0px" y="0px"
	 viewBox="0 0 584 615" style="enable-background:new 0 0 584 615;" xml:space="preserve">
<style type="text/css">
	.st0{fill:#0061CA;}
</style>
<g>
	<g>
		<g>
			<path class="st0" d="M279.1,433.3c-4.1-18.9-26.8-29.8-50.6-24.3c-23.8,5.5-39.8,25.4-35.6,44.3c4.2,19,26.8,29.8,50.7,24.3
				C267.3,472.1,283.2,452.3,279.1,433.3z"/>
			<path class="st0" d="M286.8,475.3c-13.6,3.1-22.6,14.4-20.3,25.2c2.4,10.8,15.3,17,28.8,13.9c13.6-3.1,22.6-14.4,20.3-25.2
				C313.2,478.3,300.3,472.1,286.8,475.3z"/>
			<path class="st0" d="M404.7,155.9c-11.8-32.3-50-55.9-95.3-55.9c-33.2,0-62.6,12.7-80.6,32.2c-0.9,0-1.7-0.1-2.5-0.1
				c-69.8,0-126.3,48-126.3,107.3c0,35.2,20,66.5,50.9,86.1c4.3,37,40.8,66,85.2,66c10.7,0,20.9-1.7,30.4-4.8
				c17.1,10.6,37.9,16.8,60.4,16.8c51.1,0,93.7-32.2,103.3-74.8c31.6-15,53.3-46.3,53.3-82.4C483.5,201.1,449.5,163.6,404.7,155.9z
				 M189.2,288.4c-2.8,0.7-6.4,1.1-10.5,1.1c-4.4,0-8-0.5-10.9-1.5c-2.9-1-5.2-2.5-6.8-4.3c-1.7-1.8-3-4.1-3.7-6.7
				c-0.7-2.6-1.2-5.5-1.2-8.7V243h-9v-16.3h9v-16.3h21.7v16.3h14.5V243h-14.5v20.4c0,3,0.7,5.1,1.5,6.3c0.8,1.3,2.3,1.9,4.3,1.9
				c1.8,0,3.5-0.2,4.8-0.7c1.4-0.5,2.4-0.8,3.1-1.2l4.3,16.4C194.2,286.9,192,287.7,189.2,288.4z M260.9,288.2h-21.7v-37.5
				c0-2.5-0.7-4.2-1.6-5.2c-0.9-1-2.6-1.5-4.7-1.5c-2.1,0-3.7,0.6-5.2,1.9c-1.5,1.3-3,2.3-3,3v39.4h-23.5v-88.6h23.5v34
				c0-0.8,1.5-1.7,2.7-2.6c1.2-0.9,2.3-1.7,3.8-2.5c1.5-0.8,3.1-1.4,5-1.9c1.9-0.5,4-0.7,6.4-0.7c3.5,0,6.3,0.5,8.7,1.5
				c2.3,1,4.2,2.5,5.7,4.2c1.4,1.8,2.4,4,3.1,6.4c0.7,2.5,0.9,5.1,0.9,8V288.2z M293.5,288.2h-21.7v-61.5h21.7V288.2z M291.2,218
				c-2.2,2.3-5.1,3.5-8.7,3.5c-3.6,0-6.5-1.2-8.7-3.5c-2.2-2.3-3.3-5-3.3-8.1c0-3.1,1.1-5.8,3.3-8.1c2.2-2.3,5.1-3.4,8.7-3.4
				c3.6,0,6.5,1.1,8.7,3.4c2.2,2.3,3.3,5,3.3,8.1C294.5,213,293.4,215.7,291.2,218z M362.2,288.2h-21.7v-37.5c0-2.5-0.3-4.2-1.3-5.2
				c-0.9-1-2.4-1.5-4.5-1.5c-2.1,0-4,0.6-5.4,1.9c-1.5,1.3-3.2,2.3-3.2,3v39.4h-21.7v-61.5h13.2c7.1,0,8.1,7.2,8.1,7.2
				c0.9-1,1.9-1.8,3.1-2.8c1.1-1,2.5-1.8,4.1-2.6c1.6-0.8,3.3-1.4,5.2-1.9c1.9-0.5,4.1-0.7,6.5-0.7c3.5,0,6.3,0.5,8.7,1.5
				c2.3,1,4.2,2.5,5.7,4.3c1.4,1.8,2.1,4,2.7,6.4c0.7,2.5,0.6,5.1,0.6,8V288.2z M434.8,288.2h-25.3l-14.8-24.6v24.6h-21.7v-88.6
				h21.7v49.1l16.4-22h23.7l-20.5,27.7L434.8,288.2z"/>
		</g>
	</g>
</g>
</svg>
